<svg id="visual" viewBox="0 0 851 315" width="851" height="315" xmlns="http://www.w3.org/2000/svg" xmlns:xlink="http://www.w3.org/1999/xlink" version="1.1"><rect x="0" y="0" width="851" height="315" fill="#140021"></rect><path d="M525 315L470 315L470 270L510 270L510 225L371 225L371 180L443 180L443 135L518 135L518 90L515 90L515 45L476 45L476 0L851 0L851 45L851 45L851 90L851 90L851 135L851 135L851 180L851 180L851 225L851 225L851 270L851 270L851 315L851 315Z" fill="#9900ff"></path><path d="M652 315L545 315L545 270L511 270L511 225L508 225L508 180L598 180L598 135L502 135L502 90L592 90L592 45L645 45L645 0L851 0L851 45L851 45L851 90L851 90L851 135L851 135L851 180L851 180L851 225L851 225L851 270L851 270L851 315L851 315Z" fill="#7700c6"></path><path d="M673 315L641 315L641 270L692 270L692 225L743 225L743 180L639 180L639 135L647 135L647 90L634 90L634 45L765 45L765 0L851 0L851 45L851 45L851 90L851 90L851 135L851 135L851 180L851 180L851 225L851 225L851 270L851 270L851 315L851 315Z" fill="#560090"></path></svg>